<svg id="svg" version="1.1" xmlns="http://www.w3.org/2000/svg" xmlns:xlink="http://www.w3.org/1999/xlink" width="400" height="167.05336426914153" viewBox="0, 0, 400,167.05336426914153"><g id="svgg"><path id="path0" d="M178.996 45.614 C 178.948 45.798,178.803 45.948,178.674 45.948 C 178.511 45.948,178.470 46.069,178.539 46.343 C 178.607 46.615,178.556 46.770,178.375 46.839 C 178.230 46.895,178.112 47.089,178.112 47.271 C 178.112 47.453,178.011 47.663,177.888 47.736 C 177.764 47.810,177.524 48.189,177.354 48.580 C 177.184 48.970,176.984 49.290,176.910 49.290 C 176.836 49.290,176.775 49.438,176.775 49.618 C 176.775 49.799,176.628 50.025,176.447 50.122 C 176.256 50.225,176.159 50.400,176.214 50.544 C 176.268 50.684,176.192 50.836,176.041 50.894 C 175.893 50.950,175.773 51.092,175.773 51.209 C 175.773 51.326,175.660 51.515,175.522 51.629 C 175.384 51.743,175.272 51.978,175.272 52.151 C 175.272 52.323,175.159 52.464,175.021 52.464 C 174.645 52.464,174.706 53.254,175.098 53.464 C 175.290 53.566,175.387 53.742,175.331 53.886 C 175.278 54.025,175.353 54.177,175.505 54.235 C 175.652 54.292,175.773 54.443,175.773 54.571 C 175.773 54.699,175.894 54.804,176.043 54.804 C 176.241 54.804,176.292 54.915,176.233 55.221 C 176.189 55.451,176.225 55.639,176.312 55.639 C 176.531 55.639,177.097 56.340,177.104 56.619 C 177.123 57.408,178.780 58.324,178.780 57.546 C 178.780 57.437,178.887 57.142,179.018 56.891 C 179.255 56.433,179.211 55.973,178.929 55.973 C 178.847 55.973,178.778 55.842,178.776 55.681 C 178.773 55.520,178.548 55.169,178.274 54.901 C 177.467 54.109,177.594 53.968,179.120 53.968 C 180.252 53.968,180.476 53.922,180.553 53.676 C 180.603 53.515,180.751 53.184,180.882 52.940 C 181.436 51.906,181.298 51.796,179.449 51.796 C 177.889 51.796,177.778 51.774,177.778 51.462 C 177.778 51.276,177.889 51.128,178.028 51.128 C 178.181 51.128,178.279 50.972,178.279 50.728 C 178.279 50.508,178.392 50.285,178.530 50.232 C 178.668 50.179,178.780 50.021,178.780 49.880 C 178.780 49.739,178.902 49.624,179.050 49.624 C 179.239 49.624,179.294 49.522,179.233 49.288 C 179.174 49.063,179.254 48.893,179.472 48.776 C 179.691 48.659,179.766 48.497,179.699 48.287 C 179.545 47.800,180.130 47.599,181.867 47.543 C 183.617 47.488,183.793 47.426,183.793 46.875 C 183.793 46.661,183.906 46.442,184.043 46.389 C 184.190 46.333,184.294 46.082,184.294 45.786 L 184.294 45.280 181.689 45.280 C 179.224 45.280,179.078 45.298,178.996 45.614 M191.980 45.692 C 191.980 45.919,192.138 46.408,192.331 46.778 L 192.682 47.452 194.420 47.452 C 196.046 47.452,196.157 47.473,196.157 47.786 C 196.157 47.970,196.227 48.120,196.312 48.120 C 196.398 48.120,196.641 48.468,196.854 48.893 C 197.066 49.318,197.334 49.702,197.450 49.746 C 197.566 49.791,197.661 49.999,197.661 50.209 C 197.661 50.419,197.781 50.637,197.929 50.694 C 198.093 50.757,198.157 50.901,198.093 51.067 C 198.031 51.227,198.110 51.429,198.284 51.561 C 198.537 51.753,198.325 51.786,196.802 51.791 C 194.973 51.796,194.494 51.986,195.081 52.473 C 195.213 52.583,195.322 52.816,195.322 52.991 C 195.322 53.167,195.434 53.354,195.572 53.407 C 195.710 53.459,195.823 53.607,195.823 53.736 C 195.823 53.915,196.128 53.968,197.160 53.968 C 198.397 53.968,198.847 54.132,198.246 54.363 C 198.108 54.416,197.995 54.594,197.995 54.758 C 197.995 54.923,197.776 55.239,197.509 55.460 C 196.983 55.894,196.949 56.789,197.439 57.279 C 197.561 57.401,197.661 57.604,197.661 57.730 C 197.661 57.856,197.731 58.002,197.816 58.055 C 198.037 58.191,198.886 57.362,198.789 57.106 C 198.744 56.988,198.923 56.708,199.187 56.482 C 199.450 56.257,199.666 55.933,199.666 55.763 C 199.666 55.593,199.894 55.245,200.173 54.990 C 200.512 54.681,200.644 54.434,200.573 54.248 C 200.511 54.086,200.547 53.968,200.658 53.968 C 201.123 53.968,201.719 53.074,201.346 52.937 C 201.129 52.856,201.003 52.661,201.003 52.404 C 201.003 52.181,200.890 51.956,200.752 51.903 C 200.614 51.850,200.501 51.654,200.501 51.467 C 200.501 51.281,200.441 51.128,200.366 51.128 C 200.292 51.128,200.096 50.822,199.931 50.448 C 199.766 50.073,199.526 49.727,199.398 49.678 C 199.270 49.629,199.165 49.412,199.165 49.197 C 199.165 48.981,199.040 48.736,198.888 48.651 C 198.723 48.558,198.653 48.387,198.715 48.227 C 198.780 48.057,198.697 47.894,198.490 47.783 C 198.310 47.686,198.162 47.497,198.162 47.363 C 198.162 47.228,198.087 47.118,197.995 47.118 C 197.903 47.118,197.828 46.975,197.828 46.802 C 197.828 46.628,197.715 46.442,197.577 46.389 C 197.431 46.333,197.327 46.082,197.327 45.786 L 197.327 45.280 194.653 45.280 L 191.980 45.280 191.980 45.692 M181.565 60.262 C 181.504 60.323,181.454 60.541,181.454 60.745 C 181.454 60.950,181.341 61.160,181.203 61.213 C 181.039 61.276,180.952 61.536,180.952 61.965 C 180.952 62.394,181.039 62.654,181.203 62.717 C 181.341 62.770,181.454 62.928,181.454 63.069 C 181.454 63.210,181.529 63.325,181.621 63.325 C 181.713 63.325,181.788 63.467,181.788 63.641 C 181.788 63.815,181.901 64.001,182.038 64.054 C 182.176 64.107,182.289 64.290,182.289 64.461 C 182.289 64.633,182.513 64.992,182.786 65.260 C 183.059 65.528,183.284 65.879,183.287 66.040 C 183.289 66.201,183.367 66.332,183.459 66.332 C 183.551 66.332,183.626 66.437,183.626 66.565 C 183.626 66.693,183.739 66.841,183.876 66.894 C 184.014 66.947,184.127 67.126,184.127 67.293 C 184.127 67.459,184.361 67.800,184.646 68.050 C 184.931 68.301,185.126 68.606,185.079 68.729 C 185.032 68.851,185.212 69.132,185.479 69.353 C 185.746 69.574,185.965 69.889,185.965 70.054 C 185.965 70.219,186.190 70.574,186.466 70.844 C 186.742 71.113,186.967 71.444,186.967 71.578 C 186.967 71.871,188.014 73.016,188.282 73.016 C 188.386 73.016,188.471 72.911,188.471 72.783 C 188.471 72.655,188.584 72.507,188.722 72.454 C 188.860 72.401,188.972 72.243,188.972 72.102 C 188.972 71.816,189.549 71.178,189.808 71.178 C 189.900 71.178,189.975 70.970,189.975 70.717 C 189.975 70.411,190.139 70.120,190.461 69.854 C 190.728 69.634,190.908 69.353,190.861 69.230 C 190.813 69.107,191.008 68.802,191.294 68.551 C 191.579 68.301,191.813 67.962,191.813 67.799 C 191.813 67.479,192.373 66.834,192.651 66.834 C 192.750 66.834,192.777 66.657,192.717 66.416 C 192.638 66.100,192.678 65.998,192.881 65.998 C 193.029 65.998,193.150 65.886,193.150 65.748 C 193.150 65.610,193.262 65.497,193.400 65.497 C 193.549 65.497,193.651 65.344,193.651 65.119 C 193.651 64.912,193.839 64.539,194.069 64.291 C 194.298 64.044,194.488 63.744,194.491 63.625 C 194.493 63.506,194.719 63.189,194.992 62.921 C 195.538 62.386,195.617 61.974,195.246 61.603 C 195.113 61.469,194.955 61.163,194.894 60.922 C 194.758 60.379,194.651 60.377,194.084 60.902 C 193.836 61.132,193.569 61.320,193.491 61.320 C 193.412 61.320,193.387 61.469,193.435 61.652 C 193.490 61.863,193.423 62.022,193.252 62.088 C 193.104 62.145,192.982 62.298,192.982 62.429 C 192.982 62.560,192.870 62.710,192.732 62.763 C 192.594 62.816,192.481 62.994,192.481 63.158 C 192.481 63.322,192.368 63.500,192.231 63.552 C 192.093 63.605,191.980 63.801,191.980 63.988 C 191.980 64.175,191.905 64.327,191.813 64.327 C 191.721 64.327,191.646 64.432,191.646 64.560 C 191.646 64.688,191.539 64.834,191.408 64.884 C 191.277 64.935,191.037 65.262,190.874 65.612 C 190.711 65.962,190.480 66.309,190.360 66.383 C 190.240 66.456,190.142 66.645,190.142 66.802 C 190.142 66.959,189.916 67.274,189.641 67.502 C 189.365 67.730,189.140 68.023,189.140 68.153 C 189.140 68.283,188.952 68.636,188.722 68.937 C 188.492 69.238,188.304 69.603,188.304 69.747 C 188.304 70.235,187.487 69.539,187.474 69.040 C 187.471 68.921,187.281 68.621,187.051 68.374 C 186.821 68.126,186.633 67.799,186.633 67.647 C 186.633 67.495,186.520 67.327,186.383 67.275 C 186.245 67.222,186.132 67.063,186.132 66.923 C 186.132 66.782,186.057 66.667,185.965 66.667 C 185.873 66.667,185.798 66.553,185.798 66.414 C 185.798 66.276,185.647 66.033,185.464 65.876 C 185.280 65.719,185.129 65.456,185.129 65.293 C 185.129 65.129,185.054 64.996,184.962 64.996 C 184.871 64.996,184.795 64.891,184.795 64.763 C 184.795 64.635,184.683 64.487,184.545 64.434 C 184.407 64.381,184.294 64.237,184.294 64.114 C 184.294 63.991,184.064 63.654,183.783 63.367 C 183.502 63.080,183.295 62.735,183.324 62.601 C 183.352 62.468,183.168 62.166,182.916 61.931 C 182.663 61.695,182.456 61.357,182.456 61.179 C 182.456 61.000,182.343 60.811,182.206 60.758 C 182.068 60.705,181.955 60.547,181.955 60.406 C 181.955 60.141,181.759 60.068,181.565 60.262 " stroke="none" fill="#ea7f90" fill-rule="evenodd"></path><path id="path1" d="M187.258 40.191 C 186.746 40.666,186.608 41.604,187.051 41.604 C 187.218 41.604,187.302 41.437,187.302 41.103 C 187.302 40.769,187.385 40.602,187.552 40.602 C 187.690 40.602,187.803 40.489,187.803 40.351 C 187.803 40.195,187.961 40.100,188.221 40.100 C 188.573 40.100,188.638 40.178,188.638 40.602 C 188.638 40.936,188.722 41.103,188.889 41.103 C 189.281 41.103,189.194 40.325,188.768 40.026 C 188.237 39.654,187.783 39.704,187.258 40.191 M189.140 41.855 C 189.140 41.992,189.215 42.105,189.307 42.105 C 189.398 42.105,189.474 42.293,189.474 42.523 C 189.474 42.783,189.568 42.941,189.724 42.941 C 189.891 42.941,189.975 43.108,189.975 43.442 C 189.975 43.776,190.058 43.943,190.226 43.943 C 190.379 43.943,190.476 44.099,190.476 44.343 C 190.476 44.563,190.589 44.786,190.727 44.839 C 190.873 44.895,190.977 45.146,190.977 45.442 C 190.977 45.720,191.053 45.948,191.145 45.948 C 191.236 45.948,191.312 46.101,191.312 46.288 C 191.312 46.474,191.424 46.670,191.562 46.723 C 191.700 46.776,191.813 46.991,191.813 47.201 C 191.813 47.411,191.926 47.627,192.063 47.679 C 192.201 47.732,192.314 47.958,192.314 48.181 C 192.314 48.404,192.427 48.629,192.565 48.682 C 192.713 48.739,192.815 48.990,192.815 49.297 C 192.815 49.582,192.922 49.922,193.052 50.052 C 193.213 50.212,193.249 50.437,193.166 50.750 C 192.886 51.804,190.488 51.284,190.479 50.167 C 190.477 49.933,190.374 49.791,190.206 49.791 C 190.008 49.791,189.957 49.680,190.016 49.373 C 190.069 49.093,190.021 48.956,189.868 48.956 C 189.727 48.956,189.641 48.766,189.641 48.454 C 189.641 48.120,189.557 47.953,189.390 47.953 C 189.223 47.953,189.140 47.786,189.140 47.452 C 189.140 47.118,189.056 46.951,188.889 46.951 C 188.751 46.951,188.638 46.812,188.638 46.642 C 188.638 46.291,188.176 45.300,187.866 44.987 C 187.750 44.870,187.252 44.779,186.729 44.779 C 185.779 44.779,185.305 44.122,186.048 43.837 C 186.203 43.777,186.299 43.523,186.299 43.173 C 186.299 42.781,186.376 42.607,186.550 42.607 C 186.689 42.607,186.800 42.458,186.800 42.272 C 186.800 42.089,186.718 41.938,186.618 41.938 C 186.517 41.938,186.396 42.089,186.347 42.272 C 186.299 42.456,186.208 42.607,186.143 42.607 C 185.976 42.607,185.464 43.730,185.464 44.099 C 185.464 44.491,184.817 44.592,181.314 44.748 C 179.013 44.851,178.729 44.896,178.521 45.196 C 178.394 45.380,178.213 45.621,178.118 45.732 C 178.023 45.843,177.945 46.088,177.945 46.275 C 177.945 46.467,177.835 46.617,177.694 46.617 C 177.556 46.617,177.444 46.729,177.444 46.867 C 177.444 47.005,177.368 47.118,177.277 47.118 C 177.185 47.118,177.109 47.343,177.109 47.619 C 177.109 47.953,177.026 48.120,176.859 48.120 C 176.703 48.120,176.608 48.278,176.608 48.538 C 176.608 48.768,176.514 48.957,176.399 48.958 C 176.284 48.959,176.042 49.278,175.861 49.668 C 175.680 50.057,175.361 50.609,175.151 50.893 C 174.942 51.177,174.770 51.610,174.770 51.854 C 174.770 52.137,174.679 52.297,174.520 52.297 C 174.339 52.297,174.269 52.483,174.269 52.966 C 174.269 53.483,174.333 53.634,174.553 53.634 C 174.768 53.634,174.790 53.681,174.644 53.827 C 174.417 54.054,174.979 54.971,175.345 54.971 C 175.465 54.971,175.606 55.239,175.659 55.571 C 175.713 55.903,175.946 56.346,176.182 56.565 C 176.417 56.782,176.608 57.039,176.608 57.135 C 176.608 57.231,176.721 57.310,176.859 57.310 C 177.019 57.310,177.111 57.475,177.115 57.769 C 177.121 58.277,177.510 58.825,178.077 59.129 C 178.310 59.254,178.446 59.484,178.446 59.755 C 178.446 60.150,178.880 61.122,179.146 61.324 C 179.377 61.498,180.052 62.588,180.281 63.158 C 180.411 63.480,180.822 64.182,181.194 64.718 C 181.567 65.255,181.983 65.856,182.119 66.055 C 182.255 66.254,182.462 66.476,182.579 66.550 C 182.695 66.623,182.790 66.766,182.790 66.868 C 182.790 66.970,182.967 67.285,183.182 67.570 C 183.397 67.854,183.822 68.538,184.125 69.089 C 184.429 69.641,184.779 70.152,184.903 70.226 C 185.028 70.299,185.129 70.442,185.129 70.544 C 185.129 70.646,185.317 70.975,185.547 71.276 C 185.777 71.578,185.965 71.872,185.965 71.930 C 185.965 71.988,186.134 72.275,186.341 72.568 C 186.548 72.860,186.800 73.250,186.901 73.434 C 187.302 74.163,189.140 73.865,189.140 73.071 C 189.140 72.857,189.215 72.682,189.307 72.682 C 189.398 72.682,189.474 72.577,189.474 72.449 C 189.474 72.321,189.586 72.173,189.724 72.120 C 189.862 72.067,189.975 71.918,189.975 71.788 C 189.975 71.659,190.088 71.459,190.226 71.345 C 190.363 71.231,190.476 71.005,190.476 70.843 C 190.476 70.681,190.658 70.429,190.879 70.284 C 191.101 70.139,191.334 69.788,191.396 69.504 C 191.458 69.220,191.803 68.679,192.162 68.301 C 192.521 67.924,192.815 67.511,192.815 67.383 C 192.815 67.256,193.003 66.978,193.233 66.765 C 193.463 66.552,193.651 66.302,193.651 66.208 C 193.651 66.115,193.764 65.946,193.901 65.831 C 194.039 65.717,194.152 65.407,194.152 65.142 C 194.152 64.776,194.230 64.662,194.480 64.662 C 194.843 64.662,195.155 64.203,195.155 63.670 C 195.155 63.480,195.222 63.325,195.304 63.325 C 195.563 63.325,196.491 62.427,196.491 62.177 C 196.491 62.046,196.754 61.618,197.076 61.226 C 197.398 60.833,197.661 60.391,197.661 60.242 C 197.661 60.094,197.774 59.930,197.911 59.877 C 198.049 59.824,198.162 59.655,198.162 59.501 C 198.162 59.348,198.312 59.093,198.496 58.936 C 198.680 58.779,198.830 58.461,198.830 58.231 C 198.830 58.000,198.908 57.811,199.003 57.811 C 199.098 57.811,199.224 57.680,199.283 57.519 C 199.342 57.358,199.565 56.994,199.779 56.709 C 199.992 56.425,200.167 56.030,200.167 55.832 C 200.167 55.634,200.242 55.472,200.334 55.472 C 200.617 55.472,201.170 54.821,201.170 54.487 C 201.170 54.313,201.282 54.128,201.420 54.075 C 201.558 54.022,201.671 53.864,201.671 53.723 C 201.671 53.582,201.746 53.467,201.838 53.467 C 201.930 53.467,202.005 53.204,202.005 52.882 C 202.005 52.561,201.930 52.297,201.838 52.297 C 201.746 52.297,201.671 52.185,201.671 52.047 C 201.671 51.909,201.550 51.796,201.402 51.796 C 201.228 51.796,201.169 51.705,201.234 51.536 C 201.383 51.146,200.887 50.108,200.503 50.007 C 200.269 49.946,200.167 49.780,200.167 49.458 C 200.167 49.204,200.054 48.903,199.916 48.789 C 199.779 48.674,199.666 48.477,199.666 48.350 C 199.666 48.224,199.591 48.120,199.499 48.120 C 199.407 48.120,199.332 48.008,199.332 47.870 C 199.332 47.732,199.219 47.619,199.081 47.619 C 198.927 47.619,198.830 47.462,198.830 47.212 C 198.830 46.988,198.605 46.557,198.329 46.255 C 198.053 45.954,197.828 45.620,197.828 45.514 C 197.828 44.932,195.732 44.474,192.977 44.454 L 191.718 44.444 190.846 43.562 C 190.367 43.077,189.975 42.588,189.975 42.476 C 189.975 42.279,189.393 41.604,189.223 41.604 C 189.177 41.604,189.140 41.717,189.140 41.855 M184.294 45.786 C 184.294 46.082,184.190 46.333,184.043 46.389 C 183.906 46.442,183.793 46.661,183.793 46.875 C 183.793 47.426,183.617 47.488,181.867 47.543 C 180.130 47.599,179.545 47.800,179.699 48.287 C 179.766 48.497,179.691 48.659,179.472 48.776 C 179.254 48.893,179.174 49.063,179.233 49.288 C 179.294 49.522,179.239 49.624,179.050 49.624 C 178.902 49.624,178.780 49.739,178.780 49.880 C 178.780 50.021,178.668 50.179,178.530 50.232 C 178.392 50.285,178.279 50.508,178.279 50.728 C 178.279 50.972,178.181 51.128,178.028 51.128 C 177.889 51.128,177.778 51.276,177.778 51.462 C 177.778 51.774,177.889 51.796,179.449 51.796 C 181.298 51.796,181.436 51.906,180.882 52.940 C 180.751 53.184,180.603 53.515,180.553 53.676 C 180.476 53.922,180.252 53.968,179.120 53.968 C 177.594 53.968,177.467 54.109,178.274 54.901 C 178.548 55.169,178.773 55.520,178.776 55.681 C 178.778 55.842,178.847 55.973,178.929 55.973 C 179.211 55.973,179.255 56.433,179.018 56.891 C 178.887 57.142,178.780 57.437,178.780 57.546 C 178.780 58.324,177.123 57.408,177.104 56.619 C 177.097 56.340,176.531 55.639,176.312 55.639 C 176.225 55.639,176.189 55.451,176.233 55.221 C 176.292 54.915,176.241 54.804,176.043 54.804 C 175.894 54.804,175.773 54.699,175.773 54.571 C 175.773 54.443,175.652 54.292,175.505 54.235 C 175.353 54.177,175.278 54.025,175.331 53.886 C 175.387 53.742,175.290 53.566,175.098 53.464 C 174.706 53.254,174.645 52.464,175.021 52.464 C 175.159 52.464,175.272 52.323,175.272 52.151 C 175.272 51.978,175.384 51.743,175.522 51.629 C 175.660 51.515,175.773 51.326,175.773 51.209 C 175.773 51.092,175.893 50.950,176.041 50.894 C 176.192 50.836,176.268 50.684,176.214 50.544 C 176.159 50.400,176.256 50.225,176.447 50.122 C 176.628 50.025,176.775 49.799,176.775 49.618 C 176.775 49.438,176.836 49.290,176.910 49.290 C 176.984 49.290,177.184 48.970,177.354 48.580 C 177.524 48.189,177.764 47.810,177.888 47.736 C 178.011 47.663,178.112 47.453,178.112 47.271 C 178.112 47.089,178.230 46.895,178.375 46.839 C 178.556 46.770,178.607 46.615,178.539 46.343 C 178.470 46.069,178.511 45.948,178.674 45.948 C 178.803 45.948,178.948 45.798,178.996 45.614 C 179.078 45.298,179.224 45.280,181.689 45.280 L 184.294 45.280 184.294 45.786 M187.684 45.499 C 187.828 45.874,187.609 46.617,187.354 46.617 C 187.188 46.617,187.145 46.721,187.218 46.952 C 187.289 47.174,187.237 47.320,187.062 47.387 C 186.908 47.446,186.800 47.686,186.800 47.971 C 186.800 48.289,186.715 48.454,186.550 48.454 C 186.369 48.454,186.299 48.640,186.299 49.123 C 186.299 49.605,186.229 49.791,186.048 49.791 C 185.881 49.791,185.798 49.958,185.798 50.292 C 185.798 50.627,185.714 50.794,185.547 50.794 C 185.409 50.794,185.297 50.906,185.297 51.044 C 185.297 51.182,185.221 51.295,185.129 51.295 C 185.038 51.295,184.962 51.406,184.962 51.543 C 184.962 51.755,185.622 51.797,189.515 51.835 L 194.069 51.880 194.123 52.266 C 194.153 52.478,194.285 52.693,194.416 52.743 C 194.546 52.793,194.653 53.006,194.653 53.216 C 194.653 53.426,194.766 53.642,194.904 53.695 C 195.042 53.747,195.155 53.981,195.155 54.214 C 195.155 54.446,195.230 54.637,195.322 54.637 C 195.414 54.637,195.489 54.825,195.489 55.054 C 195.489 55.314,195.583 55.472,195.739 55.472 C 195.906 55.472,195.990 55.639,195.990 55.973 C 195.990 56.307,196.074 56.475,196.241 56.475 C 196.406 56.475,196.491 56.640,196.491 56.958 C 196.491 57.233,196.599 57.483,196.742 57.537 C 196.880 57.590,196.992 57.777,196.992 57.953 C 196.992 58.128,197.105 58.365,197.243 58.480 C 197.396 58.606,197.494 58.973,197.494 59.419 C 197.494 59.958,197.428 60.150,197.243 60.150 C 197.087 60.150,196.992 60.308,196.992 60.568 C 196.992 60.828,196.898 60.986,196.742 60.986 C 196.604 60.986,196.491 61.099,196.491 61.236 C 196.491 61.708,195.973 61.488,195.733 60.914 C 195.602 60.598,195.417 60.293,195.324 60.235 C 195.231 60.178,195.155 59.985,195.155 59.806 C 195.155 59.628,195.042 59.482,194.904 59.482 C 194.748 59.482,194.653 59.324,194.653 59.064 C 194.653 58.804,194.559 58.647,194.403 58.647 C 194.248 58.647,194.152 58.490,194.152 58.239 C 194.152 58.014,194.077 57.784,193.985 57.728 C 193.893 57.671,193.818 57.403,193.818 57.133 C 193.818 56.808,193.733 56.642,193.567 56.642 C 193.411 56.642,193.317 56.484,193.317 56.224 C 193.317 55.964,193.222 55.806,193.066 55.806 C 192.891 55.806,192.815 55.630,192.815 55.221 C 192.815 53.963,192.839 53.968,186.717 53.968 C 181.500 53.968,181.287 53.956,181.287 53.652 C 181.287 53.478,181.399 53.292,181.537 53.239 C 181.675 53.187,181.788 52.953,181.788 52.720 C 181.788 52.488,181.863 52.297,181.955 52.297 C 182.047 52.297,182.122 52.072,182.122 51.796 C 182.122 51.462,182.206 51.295,182.373 51.295 C 182.529 51.295,182.623 51.137,182.623 50.877 C 182.623 50.617,182.718 50.459,182.874 50.459 C 183.178 50.459,183.226 49.519,182.927 49.419 C 182.797 49.376,182.779 49.243,182.873 49.029 C 183.009 48.722,183.020 48.725,183.082 49.081 C 183.118 49.288,183.257 49.457,183.390 49.457 C 183.565 49.457,183.603 49.341,183.527 49.039 C 183.448 48.723,183.488 48.622,183.691 48.622 C 183.867 48.622,183.960 48.476,183.960 48.199 C 183.960 47.966,184.073 47.732,184.211 47.679 C 184.348 47.627,184.461 47.411,184.461 47.201 C 184.461 46.991,184.574 46.776,184.712 46.723 C 184.850 46.670,184.962 46.472,184.962 46.282 C 184.962 46.093,185.075 45.894,185.213 45.842 C 185.351 45.789,185.464 45.641,185.464 45.513 C 185.464 45.192,187.561 45.179,187.684 45.499 M197.327 45.786 C 197.327 46.082,197.431 46.333,197.577 46.389 C 197.715 46.442,197.828 46.628,197.828 46.802 C 197.828 46.975,197.903 47.118,197.995 47.118 C 198.087 47.118,198.162 47.228,198.162 47.363 C 198.162 47.497,198.310 47.686,198.490 47.783 C 198.697 47.894,198.780 48.057,198.715 48.227 C 198.653 48.387,198.723 48.558,198.888 48.651 C 199.040 48.736,199.165 48.981,199.165 49.197 C 199.165 49.412,199.270 49.629,199.398 49.678 C 199.526 49.727,199.766 50.073,199.931 50.448 C 200.096 50.822,200.292 51.128,200.366 51.128 C 200.441 51.128,200.501 51.281,200.501 51.467 C 200.501 51.654,200.614 51.850,200.752 51.903 C 200.890 51.956,201.003 52.181,201.003 52.404 C 201.003 52.661,201.129 52.856,201.346 52.937 C 201.719 53.074,201.123 53.968,200.658 53.968 C 200.547 53.968,200.511 54.086,200.573 54.248 C 200.644 54.434,200.512 54.681,200.173 54.990 C 199.894 55.245,199.666 55.593,199.666 55.763 C 199.666 55.933,199.450 56.257,199.187 56.482 C 198.923 56.708,198.744 56.988,198.789 57.106 C 198.886 57.362,198.037 58.191,197.816 58.055 C 197.731 58.002,197.661 57.856,197.661 57.730 C 197.661 57.604,197.561 57.401,197.439 57.279 C 196.949 56.789,196.983 55.894,197.509 55.460 C 197.776 55.239,197.995 54.923,197.995 54.758 C 197.995 54.594,198.108 54.416,198.246 54.363 C 198.847 54.132,198.397 53.968,197.160 53.968 C 196.128 53.968,195.823 53.915,195.823 53.736 C 195.823 53.607,195.710 53.459,195.572 53.407 C 195.434 53.354,195.322 53.167,195.322 52.991 C 195.322 52.816,195.213 52.583,195.081 52.473 C 194.494 51.986,194.973 51.796,196.802 51.791 C 198.325 51.786,198.537 51.753,198.284 51.561 C 198.110 51.429,198.031 51.227,198.093 51.067 C 198.157 50.901,198.093 50.757,197.929 50.694 C 197.781 50.637,197.661 50.419,197.661 50.209 C 197.661 49.999,197.566 49.791,197.450 49.746 C 197.334 49.702,197.066 49.318,196.854 48.893 C 196.641 48.468,196.398 48.120,196.312 48.120 C 196.227 48.120,196.157 47.970,196.157 47.786 C 196.157 47.473,196.046 47.452,194.420 47.452 L 192.682 47.452 192.331 46.778 C 192.138 46.408,191.980 45.919,191.980 45.692 L 191.980 45.280 194.653 45.280 L 197.327 45.280 197.327 45.786 M182.960 55.096 C 182.961 55.349,183.007 55.725,183.063 55.931 C 183.137 56.208,183.092 56.307,182.893 56.307 C 182.705 56.307,182.623 56.458,182.623 56.809 C 182.623 57.143,182.540 57.310,182.373 57.310 C 182.217 57.310,182.122 57.468,182.122 57.728 C 182.122 57.988,182.027 58.145,181.871 58.145 C 181.704 58.145,181.621 58.312,181.621 58.647 C 181.621 58.981,181.537 59.148,181.370 59.148 C 181.217 59.148,181.119 59.304,181.119 59.548 C 181.119 59.768,181.007 59.991,180.869 60.044 C 180.731 60.097,180.618 60.330,180.618 60.563 C 180.618 60.946,180.555 60.986,179.937 60.986 C 179.266 60.986,179.257 60.978,179.365 60.485 C 179.451 60.093,179.418 59.983,179.211 59.983 C 178.849 59.983,178.838 58.444,179.198 58.145 C 179.336 58.031,179.449 57.831,179.449 57.702 C 179.449 57.572,179.550 57.428,179.674 57.380 C 179.807 57.329,179.870 57.135,179.827 56.910 C 179.786 56.696,179.871 56.411,180.019 56.262 C 180.165 56.116,180.284 55.804,180.284 55.567 C 180.284 55.297,180.377 55.138,180.535 55.138 C 180.673 55.138,180.785 55.025,180.785 54.887 C 180.785 54.690,181.017 54.637,181.871 54.637 C 182.944 54.637,182.957 54.642,182.960 55.096 M181.955 60.406 C 181.955 60.547,182.068 60.705,182.206 60.758 C 182.343 60.811,182.456 61.000,182.456 61.179 C 182.456 61.357,182.663 61.695,182.916 61.931 C 183.168 62.166,183.352 62.468,183.324 62.601 C 183.295 62.735,183.502 63.080,183.783 63.367 C 184.064 63.654,184.294 63.991,184.294 64.114 C 184.294 64.237,184.407 64.381,184.545 64.434 C 184.683 64.487,184.795 64.635,184.795 64.763 C 184.795 64.891,184.871 64.996,184.962 64.996 C 185.054 64.996,185.129 65.129,185.129 65.293 C 185.129 65.456,185.280 65.719,185.464 65.876 C 185.647 66.033,185.798 66.276,185.798 66.414 C 185.798 66.553,185.873 66.667,185.965 66.667 C 186.057 66.667,186.132 66.782,186.132 66.923 C 186.132 67.063,186.245 67.222,186.383 67.275 C 186.520 67.327,186.633 67.495,186.633 67.647 C 186.633 67.799,186.821 68.126,187.051 68.374 C 187.281 68.621,187.471 68.921,187.474 69.040 C 187.487 69.539,188.304 70.235,188.304 69.747 C 188.304 69.603,188.492 69.238,188.722 68.937 C 188.952 68.636,189.140 68.283,189.140 68.153 C 189.140 68.023,189.365 67.730,189.641 67.502 C 189.916 67.274,190.142 66.959,190.142 66.802 C 190.142 66.645,190.240 66.456,190.360 66.383 C 190.480 66.309,190.711 65.962,190.874 65.612 C 191.037 65.262,191.277 64.935,191.408 64.884 C 191.539 64.834,191.646 64.688,191.646 64.560 C 191.646 64.432,191.721 64.327,191.813 64.327 C 191.905 64.327,191.980 64.175,191.980 63.988 C 191.980 63.801,192.093 63.605,192.231 63.552 C 192.368 63.500,192.481 63.322,192.481 63.158 C 192.481 62.994,192.594 62.816,192.732 62.763 C 192.870 62.710,192.982 62.560,192.982 62.429 C 192.982 62.298,193.104 62.145,193.252 62.088 C 193.423 62.022,193.490 61.863,193.435 61.652 C 193.387 61.469,193.412 61.320,193.491 61.320 C 193.569 61.320,193.836 61.132,194.084 60.902 C 194.651 60.377,194.758 60.379,194.894 60.922 C 194.955 61.163,195.113 61.469,195.246 61.603 C 195.617 61.974,195.538 62.386,194.992 62.921 C 194.719 63.189,194.493 63.506,194.491 63.625 C 194.488 63.744,194.298 64.044,194.069 64.291 C 193.839 64.539,193.651 64.912,193.651 65.119 C 193.651 65.344,193.549 65.497,193.400 65.497 C 193.262 65.497,193.150 65.610,193.150 65.748 C 193.150 65.886,193.029 65.998,192.881 65.998 C 192.678 65.998,192.638 66.100,192.717 66.416 C 192.777 66.657,192.750 66.834,192.651 66.834 C 192.373 66.834,191.813 67.479,191.813 67.799 C 191.813 67.962,191.579 68.301,191.294 68.551 C 191.008 68.802,190.813 69.107,190.861 69.230 C 190.908 69.353,190.728 69.634,190.461 69.854 C 190.139 70.120,189.975 70.411,189.975 70.717 C 189.975 70.970,189.900 71.178,189.808 71.178 C 189.549 71.178,188.972 71.816,188.972 72.102 C 188.972 72.243,188.860 72.401,188.722 72.454 C 188.584 72.507,188.471 72.655,188.471 72.783 C 188.471 72.911,188.386 73.016,188.282 73.016 C 188.014 73.016,186.967 71.871,186.967 71.578 C 186.967 71.444,186.742 71.113,186.466 70.844 C 186.190 70.574,185.965 70.219,185.965 70.054 C 185.965 69.889,185.746 69.574,185.479 69.353 C 185.212 69.132,185.032 68.851,185.079 68.729 C 185.126 68.606,184.931 68.301,184.646 68.050 C 184.361 67.800,184.127 67.459,184.127 67.293 C 184.127 67.126,184.014 66.947,183.876 66.894 C 183.739 66.841,183.626 66.693,183.626 66.565 C 183.626 66.437,183.551 66.332,183.459 66.332 C 183.367 66.332,183.289 66.201,183.287 66.040 C 183.284 65.879,183.059 65.528,182.786 65.260 C 182.513 64.992,182.289 64.633,182.289 64.461 C 182.289 64.290,182.176 64.107,182.038 64.054 C 181.901 64.001,181.788 63.815,181.788 63.641 C 181.788 63.467,181.713 63.325,181.621 63.325 C 181.529 63.325,181.454 63.210,181.454 63.069 C 181.454 62.928,181.341 62.770,181.203 62.717 C 181.039 62.654,180.952 62.394,180.952 61.965 C 180.952 61.536,181.039 61.276,181.203 61.213 C 181.341 61.160,181.454 60.950,181.454 60.745 C 181.454 60.541,181.504 60.323,181.565 60.262 C 181.759 60.068,181.955 60.141,181.955 60.406 M186.345 63.513 C 186.056 63.802,185.631 63.555,185.631 63.097 C 185.631 62.875,185.513 62.647,185.370 62.592 C 185.226 62.537,185.157 62.414,185.216 62.318 C 185.279 62.215,185.573 62.385,185.930 62.733 C 186.385 63.174,186.489 63.369,186.345 63.513 " stroke="none" fill="#f9ecef" fill-rule="evenodd"></path><path id="path2" d="M187.803 40.315 C 187.803 40.463,187.671 40.662,187.510 40.755 C 187.244 40.911,187.243 40.926,187.499 40.931 C 187.780 40.936,188.089 40.331,187.902 40.143 C 187.847 40.089,187.803 40.166,187.803 40.315 M186.299 43.275 C 186.299 43.758,186.229 43.943,186.048 43.943 C 185.778 43.943,185.700 44.531,185.949 44.685 C 186.033 44.737,186.064 44.639,186.019 44.468 C 185.971 44.281,186.044 44.116,186.202 44.055 C 186.347 43.999,186.466 43.771,186.466 43.549 C 186.466 43.326,186.584 43.098,186.727 43.043 C 187.031 42.927,186.894 42.607,186.540 42.607 C 186.370 42.607,186.299 42.804,186.299 43.275 M187.218 44.734 C 187.494 44.774,187.851 44.925,188.012 45.069 C 188.274 45.305,188.304 45.305,188.304 45.073 C 188.304 44.754,187.940 44.604,187.246 44.637 L 186.717 44.662 187.218 44.734 M185.464 45.513 C 185.464 45.641,185.351 45.789,185.213 45.842 C 185.066 45.898,184.970 46.129,184.982 46.402 C 184.996 46.752,185.021 46.784,185.083 46.533 C 185.127 46.349,185.258 46.086,185.372 45.948 C 185.729 45.518,185.824 45.280,185.641 45.280 C 185.543 45.280,185.464 45.385,185.464 45.513 M188.304 45.677 C 188.304 45.826,188.379 45.948,188.471 45.948 C 188.563 45.948,188.638 46.174,188.638 46.449 C 188.638 46.771,188.723 46.951,188.875 46.951 C 189.005 46.951,189.150 47.045,189.196 47.160 C 189.262 47.323,189.283 47.322,189.293 47.154 C 189.301 47.037,189.194 46.897,189.056 46.844 C 188.917 46.791,188.805 46.542,188.805 46.285 C 188.805 46.030,188.693 45.728,188.555 45.614 C 188.349 45.444,188.304 45.455,188.304 45.677 M190.810 45.940 C 190.810 46.049,190.923 46.252,191.061 46.390 C 191.276 46.605,191.312 46.606,191.312 46.398 C 191.312 46.265,191.199 46.063,191.061 45.948 C 190.872 45.791,190.810 45.789,190.810 45.940 M191.614 47.360 C 191.761 47.686,191.942 47.953,192.015 47.953 C 192.088 47.953,192.147 48.181,192.147 48.460 C 192.147 48.756,192.251 49.006,192.398 49.062 C 192.537 49.116,192.648 49.364,192.648 49.624 C 192.648 49.884,192.759 50.132,192.899 50.186 C 193.037 50.239,193.150 50.209,193.150 50.120 C 193.150 50.031,193.074 49.958,192.982 49.958 C 192.891 49.958,192.815 49.730,192.815 49.452 C 192.815 49.156,192.711 48.905,192.565 48.849 C 192.425 48.795,192.314 48.547,192.314 48.287 C 192.314 48.031,192.207 47.781,192.076 47.731 C 191.946 47.681,191.814 47.472,191.784 47.266 C 191.754 47.061,191.643 46.865,191.537 46.830 C 191.414 46.790,191.442 46.982,191.614 47.360 M184.018 47.877 C 183.963 48.019,183.965 48.182,184.023 48.239 C 184.080 48.296,184.127 48.223,184.127 48.077 C 184.127 47.930,184.259 47.776,184.419 47.734 C 184.693 47.663,184.693 47.657,184.414 47.638 C 184.250 47.628,184.072 47.735,184.018 47.877 M186.646 47.995 C 186.639 48.156,186.520 48.287,186.383 48.287 C 186.245 48.287,186.132 48.403,186.132 48.545 C 186.132 48.754,186.198 48.740,186.484 48.473 C 186.678 48.293,186.797 48.046,186.748 47.924 C 186.689 47.777,186.655 47.801,186.646 47.995 M185.874 49.468 C 185.814 49.566,185.804 49.686,185.854 49.735 C 185.973 49.855,186.299 49.644,186.299 49.447 C 186.299 49.234,186.011 49.248,185.874 49.468 M189.975 49.464 C 189.975 49.558,190.088 49.678,190.226 49.731 C 190.363 49.784,190.477 49.988,190.479 50.185 C 190.484 50.855,191.194 51.322,192.097 51.251 L 192.899 51.188 192.022 51.158 C 191.367 51.135,191.145 51.064,191.145 50.877 C 191.145 50.739,191.032 50.627,190.894 50.627 C 190.744 50.627,190.643 50.473,190.643 50.246 C 190.643 50.037,190.493 49.737,190.309 49.579 C 190.125 49.422,189.975 49.370,189.975 49.464 M182.414 51.291 C 182.254 51.447,182.122 51.736,182.122 51.935 C 182.122 52.135,182.047 52.297,181.955 52.297 C 181.863 52.297,181.788 52.488,181.788 52.720 C 181.788 52.953,181.675 53.187,181.537 53.239 C 181.399 53.292,181.288 53.497,181.289 53.694 C 181.292 54.064,181.569 53.721,181.877 52.966 C 181.933 52.828,182.049 52.585,182.134 52.425 C 182.219 52.265,182.289 52.025,182.289 51.890 C 182.289 51.756,182.412 51.577,182.561 51.493 C 182.711 51.410,182.805 51.266,182.770 51.175 C 182.735 51.084,182.575 51.136,182.414 51.291 M193.484 51.890 C 193.880 51.965,193.985 52.071,193.985 52.397 C 193.985 52.624,194.098 52.852,194.236 52.905 C 194.373 52.958,194.486 53.140,194.486 53.309 C 194.486 53.479,194.588 53.678,194.712 53.751 C 194.837 53.825,194.981 53.997,195.033 54.135 C 195.108 54.332,195.131 54.322,195.141 54.088 C 195.149 53.925,195.042 53.747,194.904 53.695 C 194.766 53.642,194.653 53.460,194.653 53.290 C 194.653 53.121,194.548 52.922,194.419 52.849 C 194.290 52.775,194.158 52.527,194.126 52.297 C 194.080 51.960,193.964 51.872,193.525 51.838 C 192.990 51.797,192.990 51.797,193.484 51.890 M192.607 54.413 C 192.721 54.459,192.815 54.714,192.815 54.979 C 192.815 55.289,192.934 55.524,193.150 55.639 C 193.386 55.766,193.484 55.766,193.484 55.640 C 193.484 55.542,193.371 55.418,193.233 55.365 C 193.090 55.311,192.982 55.061,192.982 54.786 C 192.982 54.432,192.904 54.306,192.690 54.316 C 192.515 54.323,192.482 54.363,192.607 54.413 M180.798 54.845 C 180.791 55.006,180.673 55.138,180.535 55.138 C 180.368 55.138,180.284 55.305,180.284 55.639 C 180.284 55.915,180.218 56.140,180.136 56.140 C 180.055 56.140,179.951 56.286,179.904 56.465 C 179.830 56.746,179.861 56.763,180.135 56.591 C 180.309 56.483,180.451 56.211,180.451 55.988 C 180.451 55.765,180.572 55.449,180.719 55.286 C 180.866 55.123,180.947 54.892,180.899 54.772 C 180.842 54.629,180.807 54.655,180.798 54.845 M193.317 56.396 C 193.317 56.531,193.429 56.642,193.567 56.642 C 193.705 56.642,193.818 56.574,193.818 56.492 C 193.818 56.410,193.705 56.300,193.567 56.247 C 193.415 56.188,193.317 56.247,193.317 56.396 M195.823 56.314 C 195.823 56.408,195.936 56.528,196.074 56.581 C 196.211 56.634,196.324 56.848,196.324 57.057 C 196.324 57.265,196.437 57.530,196.575 57.644 C 196.748 57.788,196.825 57.794,196.825 57.665 C 196.825 57.561,196.750 57.477,196.658 57.477 C 196.566 57.477,196.491 57.306,196.491 57.096 C 196.491 56.887,196.341 56.587,196.157 56.430 C 195.973 56.272,195.823 56.220,195.823 56.314 M182.196 57.213 C 182.018 57.343,181.928 57.506,181.997 57.575 C 182.066 57.644,182.122 57.612,182.122 57.505 C 182.122 57.398,182.235 57.310,182.373 57.310 C 182.510 57.310,182.623 57.235,182.623 57.143 C 182.623 56.924,182.581 56.931,182.196 57.213 M194.165 58.192 C 194.158 58.356,194.265 58.533,194.403 58.586 C 194.541 58.639,194.653 58.827,194.653 59.004 C 194.653 59.181,194.766 59.369,194.904 59.422 C 195.042 59.475,195.155 59.617,195.155 59.739 C 195.155 59.860,195.255 60.060,195.378 60.183 C 195.501 60.306,195.677 60.631,195.768 60.905 C 195.945 61.437,196.491 61.697,196.491 61.249 C 196.491 61.104,196.604 60.986,196.742 60.986 C 196.896 60.986,196.992 60.829,196.992 60.580 C 196.992 60.335,197.108 60.145,197.285 60.098 C 197.505 60.041,197.484 60.017,197.201 60.003 C 196.970 59.991,196.825 60.080,196.825 60.234 C 196.825 60.372,196.750 60.485,196.658 60.485 C 196.566 60.485,196.491 60.597,196.491 60.735 C 196.491 61.474,195.818 60.829,195.312 59.607 C 195.207 59.355,195.054 59.148,194.971 59.148 C 194.888 59.148,194.820 59.039,194.820 58.906 C 194.820 58.772,194.719 58.603,194.594 58.530 C 194.470 58.456,194.325 58.283,194.273 58.145 C 194.199 57.948,194.176 57.959,194.165 58.192 M197.015 58.531 C 197.165 58.645,197.325 58.887,197.371 59.068 C 197.452 59.387,197.456 59.387,197.474 59.056 C 197.495 58.691,197.207 58.309,196.917 58.318 C 196.821 58.321,196.865 58.417,197.015 58.531 M180.464 60.431 C 180.457 60.631,180.320 60.829,180.159 60.871 C 179.885 60.942,179.885 60.948,180.164 60.966 C 180.488 60.988,180.701 60.623,180.564 60.281 C 180.516 60.163,180.472 60.230,180.464 60.431 " stroke="none" fill="#7c7c7c" fill-rule="evenodd"></path><path id="path3" d="M187.903 40.510 C 187.845 40.744,187.685 40.936,187.549 40.936 C 187.396 40.936,187.302 41.096,187.302 41.353 C 187.302 41.622,187.208 41.771,187.038 41.771 C 186.837 41.771,186.787 41.915,186.828 42.384 C 186.860 42.765,186.802 43.024,186.673 43.067 C 186.559 43.105,186.466 43.314,186.466 43.531 C 186.466 43.749,186.335 44.008,186.174 44.108 C 185.906 44.274,185.910 44.285,186.216 44.240 C 186.425 44.209,186.571 44.037,186.608 43.781 C 186.640 43.556,186.783 43.285,186.927 43.180 C 187.072 43.074,187.144 42.872,187.088 42.726 C 187.033 42.582,187.096 42.374,187.228 42.264 C 187.360 42.154,187.469 41.932,187.469 41.771 C 187.469 41.610,187.574 41.390,187.703 41.283 C 187.832 41.177,187.984 40.904,188.040 40.678 C 188.097 40.452,188.225 40.267,188.325 40.267 C 188.439 40.267,188.466 40.434,188.396 40.711 C 188.280 41.174,188.496 41.440,188.972 41.423 C 189.133 41.417,189.103 41.366,188.889 41.282 C 188.663 41.194,188.555 40.996,188.555 40.671 C 188.555 40.036,188.053 39.912,187.903 40.510 M188.805 42.023 C 188.805 42.160,188.913 42.272,189.045 42.272 C 189.182 42.272,189.307 42.469,189.337 42.730 C 189.371 43.024,189.496 43.198,189.686 43.215 C 189.893 43.233,189.906 43.217,189.728 43.162 C 189.588 43.119,189.474 42.918,189.474 42.715 C 189.474 42.512,189.323 42.218,189.140 42.060 C 188.860 41.821,188.805 41.815,188.805 42.023 M189.734 43.594 C 189.613 43.789,189.798 44.277,189.993 44.277 C 190.075 44.277,190.142 44.419,190.142 44.591 C 190.142 44.764,190.255 44.998,190.393 45.113 C 190.530 45.227,190.643 45.575,190.643 45.885 C 190.643 46.196,190.712 46.449,190.796 46.449 C 190.987 46.449,191.980 48.462,191.980 48.849 C 191.980 49.005,192.093 49.177,192.231 49.229 C 192.368 49.282,192.481 49.502,192.481 49.717 C 192.481 49.933,192.606 50.178,192.758 50.263 C 193.258 50.543,192.896 50.961,192.152 50.961 C 191.411 50.961,190.810 50.520,190.810 49.976 C 190.810 49.802,190.698 49.617,190.560 49.564 C 190.422 49.511,190.309 49.312,190.309 49.123 C 190.309 48.933,190.196 48.735,190.058 48.682 C 189.921 48.629,189.808 48.414,189.808 48.204 C 189.808 47.994,189.690 47.777,189.546 47.721 C 189.383 47.659,189.320 47.506,189.379 47.319 C 189.432 47.153,189.365 46.870,189.229 46.691 C 189.094 46.512,188.981 46.206,188.978 46.010 C 188.975 45.815,188.864 45.565,188.732 45.455 C 188.600 45.345,188.468 45.092,188.439 44.892 C 188.397 44.595,188.265 44.522,187.719 44.493 C 187.025 44.456,187.061 44.511,187.845 44.684 C 188.145 44.750,188.304 44.893,188.304 45.096 C 188.304 45.266,188.417 45.500,188.555 45.614 C 188.693 45.728,188.805 46.030,188.805 46.285 C 188.805 46.546,188.917 46.791,189.060 46.846 C 189.234 46.912,189.283 47.070,189.215 47.342 C 189.146 47.618,189.196 47.772,189.378 47.842 C 189.522 47.897,189.641 48.133,189.641 48.366 C 189.641 48.630,189.735 48.789,189.891 48.789 C 190.044 48.789,190.142 48.944,190.142 49.188 C 190.142 49.408,190.255 49.632,190.393 49.684 C 190.530 49.737,190.643 49.971,190.643 50.204 C 190.643 50.468,190.737 50.627,190.894 50.627 C 191.032 50.627,191.145 50.739,191.145 50.877 C 191.145 51.327,192.930 51.223,193.075 50.765 C 193.153 50.520,193.102 50.337,192.919 50.203 C 192.770 50.094,192.648 49.814,192.648 49.582 C 192.648 49.349,192.536 49.115,192.398 49.062 C 192.251 49.006,192.147 48.756,192.147 48.460 C 192.147 48.181,192.090 47.953,192.019 47.953 C 191.949 47.953,191.713 47.577,191.495 47.118 C 191.277 46.658,191.034 46.282,190.954 46.282 C 190.875 46.282,190.810 46.017,190.810 45.692 C 190.810 45.310,190.718 45.067,190.547 45.001 C 190.371 44.934,190.315 44.776,190.379 44.524 C 190.449 44.243,190.389 44.126,190.140 44.061 C 189.918 44.003,189.841 43.885,189.909 43.708 C 190.018 43.424,189.890 43.341,189.734 43.594 M185.495 45.774 C 185.294 46.046,185.129 46.377,185.129 46.508 C 185.129 46.640,185.017 46.791,184.879 46.844 C 184.741 46.897,184.628 47.131,184.628 47.363 C 184.628 47.628,184.534 47.786,184.378 47.786 C 184.221 47.786,184.127 47.945,184.127 48.209 C 184.127 48.442,184.014 48.675,183.876 48.728 C 183.739 48.781,183.626 48.999,183.626 49.212 C 183.626 49.425,183.511 49.635,183.372 49.678 C 183.194 49.734,183.206 49.749,183.414 49.731 C 183.584 49.715,183.732 49.542,183.764 49.320 C 183.794 49.108,183.926 48.894,184.056 48.844 C 184.187 48.794,184.294 48.581,184.294 48.371 C 184.294 48.161,184.407 47.946,184.545 47.893 C 184.683 47.840,184.795 47.614,184.795 47.392 C 184.795 47.169,184.908 46.943,185.046 46.890 C 185.184 46.837,185.297 46.649,185.297 46.473 C 185.297 46.296,185.409 46.108,185.547 46.055 C 185.685 46.002,185.798 45.844,185.798 45.703 C 185.798 45.259,187.249 45.352,187.393 45.806 C 187.471 46.050,187.421 46.212,187.237 46.315 C 187.089 46.398,186.967 46.615,186.967 46.797 C 186.967 46.979,186.855 47.172,186.717 47.224 C 186.579 47.277,186.471 47.482,186.477 47.679 C 186.487 48.033,186.489 48.033,186.638 47.661 C 186.722 47.454,186.867 47.285,186.962 47.285 C 187.057 47.285,187.135 47.097,187.135 46.867 C 187.135 46.607,187.229 46.449,187.385 46.449 C 187.523 46.449,187.636 46.332,187.636 46.188 C 187.636 45.156,186.162 44.872,185.495 45.774 M186.048 48.289 C 185.990 48.382,185.988 48.598,186.043 48.770 C 186.105 48.967,186.047 49.120,185.886 49.181 C 185.746 49.235,185.631 49.423,185.631 49.598 C 185.631 49.774,185.518 50.011,185.380 50.125 C 185.242 50.240,185.129 50.474,185.129 50.647 C 185.129 50.820,185.017 50.961,184.879 50.961 C 184.712 50.961,184.628 51.128,184.628 51.462 C 184.628 51.921,184.674 51.961,185.171 51.938 C 185.677 51.915,185.682 51.908,185.255 51.844 C 184.761 51.769,184.574 51.128,185.046 51.128 C 185.184 51.128,185.297 51.023,185.297 50.895 C 185.297 50.767,185.409 50.619,185.547 50.566 C 185.694 50.510,185.798 50.259,185.798 49.958 C 185.798 49.650,185.901 49.407,186.057 49.347 C 186.243 49.275,186.288 49.117,186.214 48.782 C 186.135 48.420,186.179 48.298,186.414 48.237 C 186.676 48.170,186.679 48.156,186.434 48.140 C 186.279 48.129,186.105 48.196,186.048 48.289 M182.581 51.456 C 182.421 51.612,182.289 51.861,182.289 52.009 C 182.289 52.157,182.214 52.324,182.122 52.381 C 182.030 52.438,181.955 52.621,181.955 52.788 C 181.955 52.955,181.842 53.186,181.704 53.300 C 180.945 53.930,181.245 53.968,186.967 53.968 C 190.532 53.968,192.481 54.027,192.481 54.135 C 192.481 54.227,192.594 54.302,192.732 54.302 C 192.897 54.302,192.982 54.468,192.982 54.786 C 192.982 55.071,193.090 55.310,193.245 55.370 C 193.419 55.437,193.471 55.583,193.400 55.806 C 193.329 56.030,193.381 56.176,193.556 56.243 C 193.723 56.307,193.818 56.550,193.818 56.915 C 193.818 57.270,193.913 57.524,194.069 57.584 C 194.206 57.637,194.319 57.852,194.319 58.062 C 194.319 58.272,194.432 58.487,194.570 58.540 C 194.708 58.593,194.820 58.751,194.820 58.892 C 194.820 59.033,194.888 59.148,194.971 59.148 C 195.054 59.148,195.207 59.355,195.312 59.607 C 195.818 60.829,196.491 61.474,196.491 60.735 C 196.491 60.597,196.566 60.485,196.658 60.485 C 196.750 60.485,196.825 60.372,196.825 60.234 C 196.825 60.095,196.974 59.983,197.160 59.983 C 197.400 59.983,197.488 59.878,197.474 59.607 C 197.460 59.324,197.436 59.304,197.379 59.524 C 197.337 59.685,197.212 59.816,197.101 59.816 C 196.990 59.816,196.695 60.050,196.445 60.335 C 196.044 60.791,195.990 60.812,195.990 60.512 C 195.990 60.324,195.914 60.123,195.820 60.065 C 195.727 60.008,195.542 59.721,195.408 59.429 C 195.066 58.678,194.365 57.456,194.159 57.250 C 194.063 57.154,193.985 56.874,193.985 56.626 C 193.985 56.379,193.878 56.135,193.747 56.085 C 193.602 56.029,193.545 55.860,193.599 55.651 C 193.657 55.430,193.594 55.272,193.419 55.206 C 193.271 55.149,193.150 54.931,193.150 54.721 C 193.150 53.855,192.787 53.801,186.973 53.801 C 183.516 53.801,181.621 53.742,181.621 53.634 C 181.621 53.542,181.682 53.467,181.757 53.467 C 181.923 53.467,182.456 52.380,182.456 52.041 C 182.456 51.906,182.523 51.796,182.605 51.796 C 182.746 51.796,183.017 51.290,182.920 51.209 C 182.894 51.188,182.742 51.299,182.581 51.456 M191.395 51.907 C 193.508 52.080,193.818 52.151,193.818 52.456 C 193.818 52.622,193.931 52.851,194.069 52.966 C 194.206 53.080,194.319 53.317,194.319 53.493 C 194.319 53.668,194.432 53.855,194.570 53.908 C 194.708 53.961,194.820 54.176,194.820 54.386 C 194.820 54.596,194.933 54.811,195.071 54.864 C 195.209 54.917,195.322 55.151,195.322 55.383 C 195.322 55.656,195.415 55.806,195.584 55.806 C 195.763 55.806,195.814 55.904,195.747 56.117 C 195.690 56.296,195.756 56.517,195.903 56.638 C 196.043 56.755,196.157 57.019,196.157 57.226 C 196.157 57.434,196.270 57.697,196.408 57.811 C 196.546 57.926,196.658 58.149,196.658 58.307 C 196.658 58.465,196.809 58.731,196.992 58.897 C 197.275 59.153,197.327 59.160,197.327 58.941 C 197.327 58.799,197.214 58.639,197.076 58.586 C 196.938 58.533,196.825 58.346,196.825 58.171 C 196.825 57.996,196.713 57.759,196.575 57.644 C 196.437 57.530,196.324 57.265,196.324 57.057 C 196.324 56.848,196.210 56.633,196.069 56.580 C 195.891 56.511,195.846 56.356,195.920 56.060 C 196.001 55.741,195.961 55.639,195.757 55.639 C 195.585 55.639,195.489 55.495,195.489 55.239 C 195.489 55.019,195.376 54.796,195.238 54.743 C 195.100 54.690,194.987 54.465,194.987 54.242 C 194.987 54.019,194.875 53.794,194.737 53.741 C 194.599 53.688,194.486 53.500,194.486 53.323 C 194.486 53.146,194.373 52.958,194.236 52.905 C 194.098 52.852,193.985 52.629,193.985 52.409 C 193.985 51.957,193.219 51.770,191.581 51.824 C 190.832 51.849,190.809 51.859,191.395 51.907 M180.952 54.867 C 180.952 54.993,180.840 55.191,180.702 55.305 C 180.564 55.419,180.451 55.721,180.451 55.976 C 180.451 56.233,180.340 56.481,180.201 56.535 C 180.063 56.588,179.950 56.756,179.950 56.910 C 179.950 57.121,180.031 57.085,180.284 56.763 C 180.468 56.529,180.618 56.281,180.618 56.212 C 180.618 55.179,182.342 54.176,182.680 55.013 C 182.730 55.137,182.769 55.104,182.777 54.929 C 182.788 54.684,182.640 54.637,181.871 54.637 C 181.202 54.637,180.952 54.699,180.952 54.867 M182.790 55.619 C 182.790 55.791,182.678 56.026,182.540 56.140 C 182.402 56.255,182.289 56.452,182.289 56.579 C 182.289 56.705,182.215 56.809,182.125 56.809 C 182.035 56.809,181.912 57.015,181.852 57.268 C 181.792 57.521,181.644 57.842,181.523 57.982 C 181.366 58.164,181.353 58.307,181.478 58.483 C 181.620 58.684,181.634 58.673,181.552 58.422 C 181.481 58.204,181.551 58.089,181.792 58.026 C 182.029 57.964,182.102 57.845,182.035 57.634 C 181.972 57.436,182.052 57.269,182.266 57.155 C 182.484 57.038,182.564 56.868,182.505 56.644 C 182.444 56.409,182.499 56.307,182.687 56.307 C 182.876 56.307,182.957 56.156,182.957 55.806 C 182.957 55.530,182.920 55.305,182.874 55.305 C 182.828 55.305,182.790 55.446,182.790 55.619 M179.726 57.614 C 179.573 57.783,179.449 58.020,179.449 58.140 C 179.449 58.261,179.344 58.443,179.215 58.545 C 179.050 58.676,179.027 58.828,179.135 59.064 C 179.284 59.389,179.287 59.388,179.224 59.049 C 179.184 58.832,179.283 58.621,179.485 58.496 C 179.664 58.384,179.770 58.186,179.720 58.056 C 179.670 57.926,179.757 57.748,179.914 57.661 C 180.070 57.574,180.154 57.458,180.101 57.405 C 180.047 57.352,179.879 57.446,179.726 57.614 M181.064 58.925 C 181.003 58.986,180.952 59.177,180.952 59.348 C 180.952 59.519,180.840 59.703,180.702 59.756 C 180.564 59.809,180.451 59.920,180.451 60.003 C 180.451 60.085,180.602 60.059,180.785 59.945 C 180.969 59.830,181.119 59.571,181.119 59.371 C 181.119 59.163,181.246 58.972,181.412 58.929 C 181.646 58.868,181.652 58.849,181.440 58.833 C 181.294 58.822,181.125 58.864,181.064 58.925 M179.449 60.860 C 179.449 61.020,179.771 61.003,180.201 60.821 C 180.468 60.707,180.427 60.684,179.992 60.707 C 179.693 60.722,179.449 60.792,179.449 60.860 " stroke="none" fill="#343434" fill-rule="evenodd"></path><path id="path4" d="M188.040 40.678 C 187.984 40.904,187.832 41.177,187.703 41.283 C 187.574 41.390,187.469 41.610,187.469 41.771 C 187.469 41.932,187.364 42.152,187.235 42.258 C 187.107 42.365,187.040 42.598,187.087 42.778 C 187.141 42.982,187.072 43.142,186.903 43.207 C 186.755 43.264,186.633 43.493,186.633 43.716 C 186.633 43.980,186.502 44.174,186.257 44.272 C 185.776 44.466,185.965 44.511,187.302 44.520 C 188.287 44.527,188.392 44.562,188.439 44.892 C 188.468 45.092,188.600 45.345,188.732 45.455 C 188.864 45.565,188.975 45.815,188.978 46.010 C 188.981 46.206,189.094 46.512,189.229 46.691 C 189.365 46.870,189.432 47.153,189.379 47.319 C 189.320 47.506,189.383 47.659,189.546 47.721 C 189.690 47.777,189.808 47.994,189.808 48.204 C 189.808 48.414,189.921 48.629,190.058 48.682 C 190.196 48.735,190.309 48.933,190.309 49.123 C 190.309 49.312,190.422 49.511,190.560 49.564 C 190.698 49.617,190.810 49.802,190.810 49.976 C 190.810 50.520,191.411 50.961,192.152 50.961 C 192.896 50.961,193.258 50.543,192.758 50.263 C 192.606 50.178,192.481 49.933,192.481 49.717 C 192.481 49.502,192.368 49.282,192.231 49.229 C 192.093 49.177,191.980 49.005,191.980 48.849 C 191.980 48.462,190.987 46.449,190.796 46.449 C 190.712 46.449,190.643 46.196,190.643 45.885 C 190.643 45.575,190.530 45.227,190.393 45.113 C 190.255 44.998,190.142 44.764,190.142 44.591 C 190.142 44.419,190.075 44.277,189.993 44.277 C 189.750 44.277,189.621 43.751,189.808 43.525 C 189.936 43.371,189.892 43.292,189.644 43.227 C 189.415 43.167,189.307 43.000,189.307 42.706 C 189.307 42.432,189.214 42.272,189.056 42.272 C 188.765 42.272,188.724 41.919,188.985 41.659 C 189.112 41.531,189.037 41.447,188.722 41.368 C 188.333 41.271,188.293 41.198,188.389 40.762 C 188.522 40.157,188.191 40.077,188.040 40.678 M152.047 43.609 L 152.047 44.277 152.966 44.277 C 153.671 44.277,153.885 44.336,153.885 44.528 C 153.885 44.666,153.960 44.779,154.052 44.779 C 154.161 44.779,154.219 47.368,154.219 52.214 L 154.219 59.649 153.801 59.649 C 153.541 59.649,153.383 59.744,153.383 59.900 C 153.383 60.081,153.198 60.150,152.715 60.150 L 152.047 60.150 152.047 60.819 L 152.047 61.487 155.221 61.487 L 158.396 61.487 158.396 60.819 L 158.396 60.150 157.728 60.150 C 157.245 60.150,157.059 60.081,157.059 59.900 C 157.059 59.744,156.902 59.649,156.642 59.649 L 156.224 59.649 156.224 53.634 C 156.224 49.735,156.283 47.619,156.391 47.619 C 156.483 47.619,156.558 47.885,156.558 48.209 C 156.558 48.579,156.651 48.835,156.809 48.895 C 156.972 48.958,157.059 49.218,157.059 49.642 C 157.059 50.109,157.130 50.292,157.310 50.292 C 157.477 50.292,157.561 50.459,157.561 50.794 C 157.561 51.128,157.644 51.295,157.811 51.295 C 157.992 51.295,158.062 51.481,158.062 51.963 C 158.062 52.331,158.137 52.632,158.229 52.632 C 158.321 52.632,158.396 52.889,158.396 53.204 C 158.396 53.520,158.509 53.890,158.647 54.028 C 158.784 54.166,158.897 54.512,158.897 54.797 C 158.897 55.104,159.000 55.355,159.148 55.412 C 159.286 55.464,159.398 55.688,159.398 55.908 C 159.398 56.152,159.496 56.307,159.649 56.307 C 159.835 56.307,159.900 56.502,159.900 57.059 C 159.900 57.616,159.965 57.811,160.150 57.811 C 160.331 57.811,160.401 57.997,160.401 58.480 C 160.401 58.847,160.476 59.148,160.568 59.148 C 160.660 59.148,160.735 59.413,160.735 59.738 C 160.735 60.108,160.828 60.364,160.986 60.424 C 161.129 60.479,161.236 60.728,161.236 61.004 C 161.236 61.478,161.253 61.487,162.155 61.487 C 163.065 61.487,163.074 61.482,163.074 60.986 C 163.074 60.652,163.158 60.485,163.325 60.485 C 163.481 60.485,163.576 60.327,163.576 60.067 C 163.576 59.807,163.670 59.649,163.826 59.649 C 163.993 59.649,164.077 59.482,164.077 59.148 C 164.077 58.872,164.151 58.647,164.242 58.647 C 164.333 58.647,164.455 58.346,164.514 57.978 C 164.573 57.611,164.686 57.310,164.767 57.310 C 164.847 57.310,164.912 57.009,164.912 56.642 C 164.912 56.159,164.982 55.973,165.163 55.973 C 165.349 55.973,165.414 55.778,165.414 55.221 C 165.414 54.664,165.479 54.470,165.664 54.470 C 165.806 54.470,165.915 54.320,165.915 54.123 C 165.915 53.933,166.028 53.665,166.165 53.527 C 166.303 53.389,166.416 53.018,166.416 52.703 C 166.416 52.388,166.491 52.130,166.583 52.130 C 166.675 52.130,166.750 51.830,166.750 51.462 C 166.750 50.979,166.820 50.794,167.001 50.794 C 167.182 50.794,167.251 50.608,167.251 50.125 C 167.251 49.643,167.321 49.457,167.502 49.457 C 167.669 49.457,167.753 49.290,167.753 48.956 C 167.753 48.622,167.836 48.454,168.003 48.454 C 168.221 48.454,168.254 49.188,168.254 54.052 C 168.254 58.916,168.221 59.649,168.003 59.649 C 167.865 59.649,167.753 59.762,167.753 59.900 C 167.753 60.092,167.539 60.150,166.834 60.150 L 165.915 60.150 165.915 60.819 L 165.915 61.487 169.841 61.487 L 173.768 61.487 173.768 60.819 C 173.768 60.153,173.765 60.150,173.117 60.150 C 172.693 60.150,172.433 60.063,172.371 59.900 C 172.318 59.762,172.084 59.649,171.852 59.649 L 171.429 59.649 171.429 52.214 L 171.429 44.779 171.852 44.779 C 172.084 44.779,172.318 44.666,172.371 44.528 C 172.433 44.365,172.693 44.277,173.117 44.277 C 173.765 44.277,173.768 44.274,173.768 43.609 L 173.768 42.941 170.760 42.941 C 168.198 42.941,167.753 42.978,167.753 43.191 C 167.753 43.329,167.640 43.442,167.502 43.442 C 167.322 43.442,167.251 43.626,167.251 44.092 C 167.251 44.516,167.164 44.776,167.001 44.839 C 166.863 44.892,166.750 45.126,166.750 45.358 C 166.750 45.591,166.675 45.781,166.583 45.781 C 166.491 45.781,166.416 46.082,166.416 46.449 C 166.416 46.932,166.346 47.118,166.165 47.118 C 165.984 47.118,165.915 47.303,165.915 47.786 C 165.915 48.269,165.845 48.454,165.664 48.454 C 165.479 48.454,165.414 48.649,165.414 49.206 C 165.414 49.763,165.349 49.958,165.163 49.958 C 165.007 49.958,164.912 50.116,164.912 50.376 C 164.912 50.606,164.837 50.794,164.745 50.794 C 164.653 50.794,164.578 51.132,164.578 51.546 C 164.578 52.102,164.513 52.297,164.327 52.297 C 164.146 52.297,164.077 52.483,164.077 52.966 C 164.077 53.448,164.007 53.634,163.826 53.634 C 163.645 53.634,163.576 53.820,163.576 54.302 C 163.576 54.785,163.506 54.971,163.325 54.971 C 163.158 54.971,163.074 55.138,163.074 55.472 C 163.074 55.806,162.991 55.973,162.824 55.973 C 162.638 55.973,162.573 55.778,162.573 55.221 C 162.573 54.808,162.498 54.470,162.406 54.470 C 162.314 54.470,162.239 54.204,162.239 53.879 C 162.239 53.509,162.146 53.254,161.988 53.193 C 161.825 53.131,161.738 52.871,161.738 52.447 C 161.738 51.980,161.667 51.796,161.487 51.796 C 161.320 51.796,161.236 51.629,161.236 51.295 C 161.236 50.961,161.153 50.794,160.986 50.794 C 160.805 50.794,160.735 50.608,160.735 50.125 C 160.735 49.758,160.660 49.457,160.568 49.457 C 160.476 49.457,160.401 49.191,160.401 48.867 C 160.401 48.497,160.308 48.241,160.150 48.181 C 159.987 48.118,159.900 47.858,159.900 47.429 C 159.900 47.000,159.813 46.740,159.649 46.677 C 159.486 46.614,159.398 46.354,159.398 45.930 C 159.398 45.464,159.328 45.280,159.148 45.280 C 158.981 45.280,158.897 45.113,158.897 44.779 C 158.897 44.444,158.814 44.277,158.647 44.277 C 158.466 44.277,158.396 44.092,158.396 43.609 L 158.396 42.941 155.221 42.941 L 152.047 42.941 152.047 43.609 M201.170 43.609 L 201.170 44.277 202.089 44.277 C 202.794 44.277,203.008 44.336,203.008 44.528 C 203.008 44.666,203.120 44.779,203.258 44.779 C 203.477 44.779,203.509 45.716,203.509 52.214 C 203.509 58.712,203.477 59.649,203.258 59.649 C 203.120 59.649,203.008 59.762,203.008 59.900 C 203.008 60.092,202.794 60.150,202.089 60.150 L 201.170 60.150 201.170 60.819 L 201.170 61.487 208.609 61.487 L 216.048 61.487 216.002 58.521 L 215.957 55.556 215.079 55.505 L 214.202 55.455 214.202 56.114 C 214.202 56.546,214.116 56.806,213.952 56.869 C 213.776 56.937,213.701 57.211,213.701 57.788 C 213.701 58.365,213.626 58.640,213.450 58.707 C 213.312 58.760,213.200 58.994,213.200 59.226 L 213.200 59.649 209.942 59.649 L 206.683 59.649 206.683 52.214 C 206.683 45.716,206.715 44.779,206.934 44.779 C 207.072 44.779,207.185 44.666,207.185 44.528 C 207.185 44.336,207.398 44.277,208.104 44.277 L 209.023 44.277 209.023 43.609 L 209.023 42.941 205.096 42.941 L 201.170 42.941 201.170 43.609 M222.556 43.609 L 222.556 44.277 223.225 44.277 C 223.707 44.277,223.893 44.347,223.893 44.528 C 223.893 44.695,224.060 44.779,224.394 44.779 L 224.896 44.779 224.896 52.214 L 224.896 59.649 224.394 59.649 C 224.060 59.649,223.893 59.733,223.893 59.900 C 223.893 60.081,223.707 60.150,223.225 60.150 L 222.556 60.150 222.556 60.819 L 222.556 61.487 226.483 61.487 L 230.409 61.487 230.409 60.819 L 230.409 60.150 229.574 60.150 C 228.147 60.150,228.070 59.979,228.070 56.809 L 228.070 54.135 228.571 54.135 C 228.847 54.135,229.073 54.211,229.073 54.302 C 229.073 54.400,229.630 54.470,230.409 54.470 C 231.189 54.470,231.746 54.400,231.746 54.302 C 231.746 54.211,232.049 54.135,232.420 54.135 C 232.864 54.135,233.126 54.050,233.189 53.885 C 233.242 53.747,233.465 53.634,233.685 53.634 C 233.929 53.634,234.085 53.536,234.085 53.383 C 234.085 53.246,234.198 53.133,234.336 53.133 C 234.474 53.133,234.586 53.020,234.586 52.882 C 234.586 52.744,234.699 52.632,234.837 52.632 C 234.975 52.632,235.088 52.519,235.088 52.381 C 235.088 52.243,235.163 52.130,235.255 52.130 C 235.347 52.130,235.422 51.942,235.422 51.713 C 235.422 51.453,235.517 51.295,235.673 51.295 C 235.840 51.295,235.923 51.128,235.923 50.794 C 235.923 50.459,236.007 50.292,236.174 50.292 C 236.383 50.292,236.424 49.958,236.424 48.282 C 236.424 46.649,236.377 46.254,236.174 46.176 C 236.036 46.123,235.923 45.900,235.923 45.680 C 235.923 45.436,235.825 45.280,235.673 45.280 C 235.505 45.280,235.422 45.113,235.422 44.779 C 235.422 44.355,235.357 44.277,235.004 44.277 C 234.774 44.277,234.586 44.202,234.586 44.110 C 234.586 44.018,234.474 43.943,234.336 43.943 C 234.198 43.943,234.085 43.830,234.085 43.693 C 234.085 43.512,233.900 43.442,233.417 43.442 C 232.934 43.442,232.749 43.372,232.749 43.191 C 232.749 42.974,232.071 42.941,227.652 42.941 L 222.556 42.941 222.556 43.609 M243.442 43.609 L 243.442 44.277 244.361 44.277 C 245.066 44.277,245.280 44.336,245.280 44.528 C 245.280 44.666,245.393 44.779,245.530 44.779 C 245.668 44.779,245.781 44.891,245.781 45.029 C 245.781 45.167,245.856 45.280,245.948 45.280 C 246.057 45.280,246.115 47.703,246.115 52.214 C 246.115 56.725,246.057 59.148,245.948 59.148 C 245.856 59.148,245.781 59.261,245.781 59.398 C 245.781 59.536,245.668 59.649,245.530 59.649 C 245.393 59.649,245.280 59.758,245.280 59.890 C 245.280 60.054,245.053 60.148,244.570 60.183 C 243.880 60.232,243.858 60.252,243.808 60.860 L 243.756 61.487 247.024 61.487 L 250.292 61.487 250.292 60.819 L 250.292 60.150 249.624 60.150 C 249.141 60.150,248.956 60.081,248.956 59.900 C 248.956 59.733,248.789 59.649,248.454 59.649 L 247.953 59.649 247.953 53.622 C 247.953 48.265,247.981 47.623,248.204 47.846 C 248.342 47.984,248.454 48.177,248.454 48.275 C 248.454 48.374,248.567 48.454,248.705 48.454 C 248.852 48.454,248.956 48.607,248.956 48.821 C 248.956 49.033,249.237 49.449,249.624 49.810 C 249.996 50.157,250.292 50.590,250.292 50.786 C 250.292 50.980,250.405 51.182,250.543 51.234 C 250.681 51.287,250.794 51.435,250.794 51.563 C 250.794 51.691,250.906 51.796,251.044 51.796 C 251.200 51.796,251.295 51.954,251.295 52.214 C 251.295 52.474,251.390 52.632,251.546 52.632 C 251.683 52.632,251.796 52.717,251.796 52.821 C 251.796 52.926,251.984 53.185,252.214 53.398 C 252.444 53.611,252.632 53.939,252.632 54.127 C 252.632 54.320,252.741 54.470,252.882 54.470 C 253.020 54.470,253.133 54.582,253.133 54.720 C 253.133 54.858,253.246 54.971,253.383 54.971 C 253.535 54.971,253.634 55.126,253.634 55.365 C 253.634 55.591,253.813 55.894,254.052 56.073 C 254.285 56.248,254.470 56.556,254.470 56.770 C 254.470 56.981,254.582 57.197,254.720 57.250 C 254.858 57.302,254.971 57.450,254.971 57.578 C 254.971 57.706,255.084 57.811,255.221 57.811 C 255.359 57.811,255.472 57.924,255.472 58.062 C 255.472 58.200,255.585 58.312,255.723 58.312 C 255.867 58.312,255.973 58.463,255.973 58.669 C 255.973 58.865,256.161 59.200,256.391 59.413 C 256.621 59.626,256.809 59.954,256.809 60.142 C 256.809 60.335,256.918 60.485,257.059 60.485 C 257.197 60.485,257.310 60.597,257.310 60.735 C 257.310 60.873,257.423 60.986,257.561 60.986 C 257.698 60.986,257.811 61.099,257.811 61.236 C 257.811 61.429,258.025 61.487,258.730 61.487 L 259.649 61.487 259.649 60.335 C 259.649 59.466,259.711 59.160,259.900 59.087 C 260.117 59.004,260.150 58.048,260.150 51.885 L 260.150 44.779 260.568 44.779 C 260.828 44.779,260.986 44.684,260.986 44.528 C 260.986 44.347,261.171 44.277,261.651 44.277 C 262.221 44.277,262.331 44.218,262.421 43.860 C 262.648 42.954,262.600 42.941,259.153 42.941 L 255.973 42.941 255.973 43.609 L 255.973 44.277 256.642 44.277 C 257.124 44.277,257.310 44.347,257.310 44.528 C 257.310 44.666,257.423 44.779,257.561 44.779 C 257.778 44.779,257.811 45.466,257.811 49.958 C 257.811 52.807,257.779 55.138,257.741 55.138 C 257.702 55.138,257.444 54.912,257.169 54.637 C 256.893 54.361,256.586 54.135,256.487 54.135 C 256.388 54.135,256.307 53.937,256.307 53.695 C 256.307 53.440,256.132 53.092,255.890 52.868 C 255.660 52.655,255.472 52.326,255.472 52.138 C 255.472 51.946,255.363 51.796,255.221 51.796 C 255.084 51.796,254.971 51.683,254.971 51.546 C 254.971 51.408,254.858 51.295,254.720 51.295 C 254.576 51.295,254.470 51.144,254.470 50.938 C 254.470 50.742,254.282 50.407,254.052 50.194 C 253.822 49.981,253.634 49.728,253.634 49.632 C 253.634 49.536,253.521 49.457,253.383 49.457 C 253.234 49.457,253.133 49.303,253.133 49.076 C 253.133 48.703,252.622 48.120,252.296 48.120 C 252.205 48.120,252.130 47.895,252.130 47.619 C 252.130 47.343,252.055 47.118,251.963 47.118 C 251.871 47.118,251.796 47.005,251.796 46.867 C 251.796 46.729,251.683 46.617,251.546 46.617 C 251.390 46.617,251.295 46.459,251.295 46.199 C 251.295 45.939,251.200 45.781,251.044 45.781 C 250.906 45.781,250.794 45.668,250.794 45.530 C 250.794 45.393,250.681 45.280,250.543 45.280 C 250.405 45.280,250.292 45.167,250.292 45.029 C 250.292 44.891,250.225 44.779,250.143 44.779 C 250.061 44.779,249.947 44.591,249.890 44.361 C 249.832 44.131,249.711 43.943,249.621 43.943 C 249.531 43.943,249.457 43.830,249.457 43.693 C 249.457 43.555,249.344 43.442,249.206 43.442 C 249.069 43.442,248.956 43.329,248.956 43.191 C 248.956 42.979,248.538 42.941,246.199 42.941 L 243.442 42.941 243.442 43.609 M229.073 44.528 C 229.073 44.720,229.286 44.779,229.992 44.779 C 230.697 44.779,230.911 44.837,230.911 45.029 C 230.911 45.168,231.059 45.280,231.245 45.280 C 231.675 45.280,232.247 45.852,232.247 46.282 C 232.247 46.468,232.359 46.617,232.498 46.617 C 232.679 46.617,232.749 46.802,232.749 47.285 C 232.749 47.768,232.818 47.953,232.999 47.953 C 233.185 47.953,233.250 48.148,233.250 48.705 C 233.250 49.262,233.185 49.457,232.999 49.457 C 232.818 49.457,232.749 49.643,232.749 50.125 C 232.749 50.608,232.679 50.794,232.498 50.794 C 232.360 50.794,232.247 50.906,232.247 51.044 C 232.247 51.182,232.135 51.295,231.997 51.295 C 231.859 51.295,231.746 51.369,231.746 51.460 C 231.746 51.882,231.147 52.297,230.539 52.297 C 230.192 52.297,229.908 52.373,229.908 52.464 C 229.908 52.556,229.725 52.632,229.500 52.632 C 229.276 52.632,229.046 52.556,228.989 52.464 C 228.932 52.373,228.702 52.297,228.478 52.297 L 228.070 52.297 228.070 48.287 L 228.070 44.277 228.571 44.277 C 228.906 44.277,229.073 44.361,229.073 44.528 M185.798 45.703 C 185.798 45.844,185.685 46.002,185.547 46.055 C 185.409 46.108,185.297 46.296,185.297 46.473 C 185.297 46.649,185.184 46.837,185.046 46.890 C 184.908 46.943,184.795 47.169,184.795 47.392 C 184.795 47.614,184.683 47.840,184.545 47.893 C 184.407 47.946,184.294 48.161,184.294 48.371 C 184.294 48.581,184.181 48.796,184.043 48.849 C 183.906 48.902,183.793 49.105,183.793 49.300 C 183.793 49.516,183.660 49.690,183.455 49.744 C 183.179 49.816,183.155 49.877,183.322 50.078 C 183.488 50.278,183.456 50.377,183.150 50.607 C 182.918 50.783,182.813 50.992,182.875 51.155 C 182.931 51.300,182.860 51.536,182.716 51.679 C 182.573 51.822,182.456 52.017,182.456 52.113 C 182.456 52.397,181.904 53.467,181.757 53.467 C 181.682 53.467,181.621 53.542,181.621 53.634 C 181.621 53.742,183.516 53.801,186.973 53.801 C 192.787 53.801,193.150 53.855,193.150 54.721 C 193.150 54.931,193.271 55.149,193.419 55.206 C 193.594 55.272,193.657 55.430,193.599 55.651 C 193.545 55.860,193.602 56.029,193.747 56.085 C 193.878 56.135,193.985 56.379,193.985 56.626 C 193.985 56.874,194.063 57.154,194.159 57.250 C 194.365 57.456,195.066 58.678,195.408 59.429 C 195.542 59.721,195.727 60.008,195.820 60.065 C 195.914 60.123,195.990 60.324,195.990 60.512 C 195.990 60.812,196.044 60.791,196.445 60.335 C 196.695 60.050,196.996 59.816,197.113 59.816 C 197.442 59.816,197.366 59.235,196.992 58.897 C 196.809 58.731,196.658 58.465,196.658 58.307 C 196.658 58.149,196.546 57.926,196.408 57.811 C 196.270 57.697,196.157 57.434,196.157 57.226 C 196.157 57.019,196.043 56.755,195.903 56.638 C 195.756 56.517,195.690 56.296,195.747 56.117 C 195.814 55.904,195.763 55.806,195.584 55.806 C 195.415 55.806,195.322 55.656,195.322 55.383 C 195.322 55.151,195.209 54.917,195.071 54.864 C 194.933 54.811,194.820 54.596,194.820 54.386 C 194.820 54.176,194.708 53.961,194.570 53.908 C 194.432 53.855,194.319 53.668,194.319 53.493 C 194.319 53.317,194.206 53.080,194.069 52.966 C 193.931 52.851,193.818 52.622,193.818 52.456 C 193.818 52.015,192.566 51.886,188.262 51.882 L 184.628 51.880 184.628 51.420 C 184.628 51.123,184.717 50.961,184.879 50.961 C 185.017 50.961,185.129 50.820,185.129 50.647 C 185.129 50.474,185.242 50.240,185.380 50.125 C 185.518 50.011,185.631 49.774,185.631 49.598 C 185.631 49.423,185.743 49.236,185.880 49.184 C 186.051 49.118,186.097 48.959,186.027 48.677 C 185.946 48.358,185.998 48.248,186.259 48.179 C 186.500 48.116,186.569 47.995,186.505 47.751 C 186.449 47.536,186.519 47.352,186.692 47.255 C 186.843 47.171,186.967 46.958,186.967 46.784 C 186.967 46.609,187.089 46.398,187.237 46.315 C 187.421 46.212,187.471 46.050,187.393 45.806 C 187.249 45.352,185.798 45.259,185.798 45.703 M180.901 55.445 C 180.745 55.797,180.618 56.164,180.618 56.260 C 180.618 56.355,180.505 56.527,180.368 56.642 C 180.230 56.756,180.117 57.020,180.117 57.229 C 180.117 57.438,180.005 57.651,179.869 57.703 C 179.733 57.756,179.663 57.906,179.713 58.038 C 179.764 58.170,179.669 58.380,179.502 58.504 C 179.111 58.795,179.105 59.619,179.491 59.836 C 179.718 59.964,179.747 60.073,179.616 60.316 C 179.415 60.692,179.590 60.838,180.088 60.708 C 180.327 60.645,180.451 60.482,180.451 60.232 C 180.451 60.023,180.564 59.809,180.702 59.756 C 180.840 59.703,180.952 59.500,180.952 59.305 C 180.952 59.091,181.084 58.915,181.283 58.863 C 181.541 58.796,181.578 58.712,181.453 58.479 C 181.339 58.265,181.364 58.122,181.541 57.975 C 181.677 57.863,181.788 57.634,181.788 57.469 C 181.788 57.303,181.882 57.064,181.997 56.939 C 183.089 55.748,183.046 54.804,181.900 54.804 C 181.230 54.804,181.166 54.845,180.901 55.445 " stroke="none" fill="#040404" fill-rule="evenodd"></path></g></svg>